<svg width="93" height="94" viewBox="0 0 93 94" fill="none" xmlns="http://www.w3.org/2000/svg">
<path d="M13.6151 3.152V8.784H15.8711V9.792H13.6151V17.168H12.4151V3.152H13.6151ZM4.63913 4.544V12.608C6.88979 12.608 9.03379 12.3947 11.0711 11.968L11.2151 12.976C9.13513 13.392 6.91646 13.6 4.55913 13.6H3.45513V4.544H4.63913ZM24.0315 4.432V10.896H17.6315V4.432H24.0315ZM18.7995 5.408V9.904H22.8635V5.408H18.7995ZM27.8715 3.152V7.44H29.9515V8.448H27.8715V13.424H26.6715V3.152H27.8715ZM20.3835 12.448V15.856H28.5115V16.848H19.1995V12.448H20.3835ZM35.6799 4.192C36.3945 4.192 37.0345 4.33067 37.5999 4.608C38.1652 4.88533 38.6079 5.27467 38.9279 5.776C39.2479 6.26667 39.4079 6.832 39.4079 7.472C39.4079 8.112 39.2479 8.68267 38.9279 9.184C38.6079 9.67467 38.1652 10.0587 37.5999 10.336C37.0345 10.6133 36.3945 10.752 35.6799 10.752C34.9545 10.752 34.3092 10.6133 33.7439 10.336C33.1785 10.0587 32.7359 9.67467 32.4159 9.184C32.0959 8.68267 31.9359 8.112 31.9359 7.472C31.9359 6.832 32.0959 6.26667 32.4159 5.776C32.7359 5.27467 33.1785 4.88533 33.7439 4.608C34.3092 4.33067 34.9545 4.192 35.6799 4.192ZM35.6799 5.232C34.9332 5.232 34.3145 5.44 33.8239 5.856C33.3439 6.272 33.1039 6.81067 33.1039 7.472C33.1039 8.12267 33.3439 8.66133 33.8239 9.088C34.3145 9.504 34.9332 9.712 35.6799 9.712C36.4159 9.712 37.0239 9.504 37.5039 9.088C37.9945 8.66133 38.2399 8.12267 38.2399 7.472C38.2399 6.81067 37.9999 6.272 37.5199 5.856C37.0399 5.44 36.4265 5.232 35.6799 5.232ZM42.5119 3.152V17.184H41.3119V3.152H42.5119ZM31.2159 13.072C33.0932 13.072 34.7519 13.0453 36.1919 12.992C37.6425 12.9387 39.0399 12.8053 40.3839 12.592L40.4799 13.472C39.0932 13.7387 37.6745 13.9093 36.2239 13.984C34.7732 14.0587 33.1572 14.096 31.3759 14.096L31.2159 13.072ZM56.1198 4.576V13.6H49.7357V4.576H56.1198ZM50.9037 5.552V12.624H54.9518V5.552H50.9037ZM59.8958 3.168V8.8H62.2158V9.808H59.8958V17.168H58.6958V3.168H59.8958ZM74.7121 3.168V17.168H73.5281V3.168H74.7121ZM65.3841 4.544V12.496C67.7521 12.496 69.9708 12.2773 72.0401 11.84L72.2001 12.864C69.9921 13.312 67.7041 13.536 65.3361 13.536H64.1841V4.544H65.3841ZM88.9685 4.48V5.472H85.2885V9.696H89.1285V10.672H84.1045V4.48H88.9685ZM83.1605 14.352V11.376H84.3445V14.352H90.1205V15.36H77.4325V14.352H83.1605ZM83.2405 4.496V5.504H79.7365V9.664C80.4298 9.65333 81.0592 9.62133 81.6245 9.568C82.2005 9.51467 82.7872 9.41333 83.3845 9.264L83.4965 10.288C82.8032 10.4373 82.1312 10.5387 81.4805 10.592C80.8298 10.6453 80.1045 10.672 79.3045 10.672H78.5525V4.496H83.2405Z" fill="white"/>
<path d="M13.6151 23.152V28.784H15.8711V29.792H13.6151V37.168H12.4151V23.152H13.6151ZM4.63913 24.544V32.608C6.88979 32.608 9.03379 32.3947 11.0711 31.968L11.2151 32.976C9.13513 33.392 6.91646 33.6 4.55913 33.6H3.45513V24.544H4.63913ZM24.0315 24.432V30.896H17.6315V24.432H24.0315ZM18.7995 25.408V29.904H22.8635V25.408H18.7995ZM27.8715 23.152V27.44H29.9515V28.448H27.8715V33.424H26.6715V23.152H27.8715ZM20.3835 32.448V35.856H28.5115V36.848H19.1995V32.448H20.3835ZM35.6799 24.192C36.3945 24.192 37.0345 24.3307 37.5999 24.608C38.1652 24.8853 38.6079 25.2747 38.9279 25.776C39.2479 26.2667 39.4079 26.832 39.4079 27.472C39.4079 28.112 39.2479 28.6827 38.9279 29.184C38.6079 29.6747 38.1652 30.0587 37.5999 30.336C37.0345 30.6133 36.3945 30.752 35.6799 30.752C34.9545 30.752 34.3092 30.6133 33.7439 30.336C33.1785 30.0587 32.7359 29.6747 32.4159 29.184C32.0959 28.6827 31.9359 28.112 31.9359 27.472C31.9359 26.832 32.0959 26.2667 32.4159 25.776C32.7359 25.2747 33.1785 24.8853 33.7439 24.608C34.3092 24.3307 34.9545 24.192 35.6799 24.192ZM35.6799 25.232C34.9332 25.232 34.3145 25.44 33.8239 25.856C33.3439 26.272 33.1039 26.8107 33.1039 27.472C33.1039 28.1227 33.3439 28.6613 33.8239 29.088C34.3145 29.504 34.9332 29.712 35.6799 29.712C36.4159 29.712 37.0239 29.504 37.5039 29.088C37.9945 28.6613 38.2399 28.1227 38.2399 27.472C38.2399 26.8107 37.9999 26.272 37.5199 25.856C37.0399 25.44 36.4265 25.232 35.6799 25.232ZM42.5119 23.152V37.184H41.3119V23.152H42.5119ZM31.2159 33.072C33.0932 33.072 34.7519 33.0453 36.1919 32.992C37.6425 32.9387 39.0399 32.8053 40.3839 32.592L40.4799 33.472C39.0932 33.7387 37.6745 33.9093 36.2239 33.984C34.7732 34.0587 33.1572 34.096 31.3759 34.096L31.2159 33.072ZM56.1198 24.576V33.6H49.7357V24.576H56.1198ZM50.9037 25.552V32.624H54.9518V25.552H50.9037ZM59.8958 23.168V28.8H62.2158V29.808H59.8958V37.168H58.6958V23.168H59.8958ZM74.7121 23.168V37.168H73.5281V23.168H74.7121ZM65.3841 24.544V32.496C67.7521 32.496 69.9708 32.2773 72.0401 31.84L72.2001 32.864C69.9921 33.312 67.7041 33.536 65.3361 33.536H64.1841V24.544H65.3841ZM89.0645 23.168V37.168H87.8645V23.168H89.0645ZM81.8165 24.608V25.6H79.2085V32.528C80.2112 32.4853 81.1338 32.368 81.9765 32.176L82.1045 33.184C81.4752 33.3227 80.8938 33.4133 80.3605 33.456C79.8378 33.4987 79.2725 33.52 78.6645 33.52H78.0245V24.608H81.8165ZM86.5525 24.608V25.6H83.8005V32.528C84.4405 32.5173 85.0112 32.4907 85.5125 32.448C86.0245 32.3947 86.5418 32.304 87.0645 32.176L87.1765 33.168C86.5685 33.3173 85.9818 33.4133 85.4165 33.456C84.8512 33.4987 84.1525 33.52 83.3205 33.52H82.6165V24.608H86.5525Z" fill="white"/>
<path d="M41.904 72.976V81.232H27.984V85.312H43.776V93.568H2.256V85.312H18.048V81.232H4.608V55.36H22.08V63.616H14.544V72.976H22.08V77.44H24.48V53.92H41.424V62.176H34.416V72.976H41.904ZM61.6301 56.32V64.576H57.5021V84.832H61.6301V93.088H47.9981V56.32H61.6301ZM76.7501 53.92V62.176H72.6221V84.832H77.2301V93.088H63.1181V53.92H76.7501ZM89.8541 93.568H79.9181V52.96H89.8541V93.568Z" fill="white"/>
</svg>
