<svg width="144" height="40" viewBox="0 0 144 40" fill="none" xmlns="http://www.w3.org/2000/svg">
<path d="M10.8363 4.364V8.588H12.5283V9.344H10.8363V14.876H9.93634V4.364H10.8363ZM4.10434 5.408V11.456C5.79234 11.456 7.40034 11.296 8.92834 10.976L9.03634 11.732C7.47634 12.044 5.81234 12.2 4.04434 12.2H3.21634V5.408H4.10434ZM18.6486 5.324V10.172H13.8486V5.324H18.6486ZM14.7246 6.056V9.428H17.7726V6.056H14.7246ZM21.5286 4.364V7.58H23.0886V8.336H21.5286V12.068H20.6286V4.364H21.5286ZM15.9126 11.336V13.892H22.0086V14.636H15.0246V11.336H15.9126ZM27.3849 5.144C27.9209 5.144 28.4009 5.248 28.8249 5.456C29.2489 5.664 29.5809 5.956 29.8209 6.332C30.0609 6.7 30.1809 7.124 30.1809 7.604C30.1809 8.084 30.0609 8.512 29.8209 8.888C29.5809 9.256 29.2489 9.544 28.8249 9.752C28.4009 9.96 27.9209 10.064 27.3849 10.064C26.8409 10.064 26.3569 9.96 25.9329 9.752C25.5089 9.544 25.1769 9.256 24.9369 8.888C24.6969 8.512 24.5769 8.084 24.5769 7.604C24.5769 7.124 24.6969 6.7 24.9369 6.332C25.1769 5.956 25.5089 5.664 25.9329 5.456C26.3569 5.248 26.8409 5.144 27.3849 5.144ZM27.3849 5.924C26.8249 5.924 26.3609 6.08 25.9929 6.392C25.6329 6.704 25.4529 7.108 25.4529 7.604C25.4529 8.092 25.6329 8.496 25.9929 8.816C26.3609 9.128 26.8249 9.284 27.3849 9.284C27.9369 9.284 28.3929 9.128 28.7529 8.816C29.1209 8.496 29.3049 8.092 29.3049 7.604C29.3049 7.108 29.1249 6.704 28.7649 6.392C28.4049 6.08 27.9449 5.924 27.3849 5.924ZM32.5089 4.364V14.888H31.6089V4.364H32.5089ZM24.0369 11.804C25.4449 11.804 26.6889 11.784 27.7689 11.744C28.8569 11.704 29.9049 11.604 30.9129 11.444L30.9849 12.104C29.9449 12.304 28.8809 12.432 27.7929 12.488C26.7049 12.544 25.4929 12.572 24.1569 12.572L24.0369 11.804ZM42.7148 5.432V12.2H37.9268V5.432H42.7148ZM38.8028 6.164V11.468H41.8388V6.164H38.8028ZM45.5468 4.376V8.6H47.2868V9.356H45.5468V14.876H44.6468V4.376H45.5468ZM56.6591 4.376V14.876H55.7711V4.376H56.6591ZM49.6631 5.408V11.372C51.4391 11.372 53.1031 11.208 54.6551 10.88L54.7751 11.648C53.1191 11.984 51.4031 12.152 49.6271 12.152H48.7631V5.408H49.6631ZM67.3514 5.36V6.104H64.5914V9.272H67.4714V10.004H63.7034V5.36H67.3514ZM62.9954 12.764V10.532H63.8834V12.764H68.2154V13.52H58.6994V12.764H62.9954ZM63.0554 5.372V6.128H60.4274V9.248C60.9474 9.24 61.4194 9.216 61.8434 9.176C62.2754 9.136 62.7154 9.06 63.1634 8.948L63.2474 9.716C62.7274 9.828 62.2234 9.904 61.7354 9.944C61.2474 9.984 60.7034 10.004 60.1034 10.004H59.5394V5.372H63.0554Z" fill="white"/>
<path d="M10.8363 24.364V28.588H12.5283V29.344H10.8363V34.876H9.93634V24.364H10.8363ZM4.10434 25.408V31.456C5.79234 31.456 7.40034 31.296 8.92834 30.976L9.03634 31.732C7.47634 32.044 5.81234 32.2 4.04434 32.2H3.21634V25.408H4.10434ZM18.6486 25.324V30.172H13.8486V25.324H18.6486ZM14.7246 26.056V29.428H17.7726V26.056H14.7246ZM21.5286 24.364V27.58H23.0886V28.336H21.5286V32.068H20.6286V24.364H21.5286ZM15.9126 31.336V33.892H22.0086V34.636H15.0246V31.336H15.9126ZM27.3849 25.144C27.9209 25.144 28.4009 25.248 28.8249 25.456C29.2489 25.664 29.5809 25.956 29.8209 26.332C30.0609 26.7 30.1809 27.124 30.1809 27.604C30.1809 28.084 30.0609 28.512 29.8209 28.888C29.5809 29.256 29.2489 29.544 28.8249 29.752C28.4009 29.96 27.9209 30.064 27.3849 30.064C26.8409 30.064 26.3569 29.96 25.9329 29.752C25.5089 29.544 25.1769 29.256 24.9369 28.888C24.6969 28.512 24.5769 28.084 24.5769 27.604C24.5769 27.124 24.6969 26.7 24.9369 26.332C25.1769 25.956 25.5089 25.664 25.9329 25.456C26.3569 25.248 26.8409 25.144 27.3849 25.144ZM27.3849 25.924C26.8249 25.924 26.3609 26.08 25.9929 26.392C25.6329 26.704 25.4529 27.108 25.4529 27.604C25.4529 28.092 25.6329 28.496 25.9929 28.816C26.3609 29.128 26.8249 29.284 27.3849 29.284C27.9369 29.284 28.3929 29.128 28.7529 28.816C29.1209 28.496 29.3049 28.092 29.3049 27.604C29.3049 27.108 29.1249 26.704 28.7649 26.392C28.4049 26.08 27.9449 25.924 27.3849 25.924ZM32.5089 24.364V34.888H31.6089V24.364H32.5089ZM24.0369 31.804C25.4449 31.804 26.6889 31.784 27.7689 31.744C28.8569 31.704 29.9049 31.604 30.9129 31.444L30.9849 32.104C29.9449 32.304 28.8809 32.432 27.7929 32.488C26.7049 32.544 25.4929 32.572 24.1569 32.572L24.0369 31.804ZM42.7148 25.432V32.2H37.9268V25.432H42.7148ZM38.8028 26.164V31.468H41.8388V26.164H38.8028ZM45.5468 24.376V28.6H47.2868V29.356H45.5468V34.876H44.6468V24.376H45.5468ZM56.6591 24.376V34.876H55.7711V24.376H56.6591ZM49.6631 25.408V31.372C51.4391 31.372 53.1031 31.208 54.6551 30.88L54.7751 31.648C53.1191 31.984 51.4031 32.152 49.6271 32.152H48.7631V25.408H49.6631ZM67.4234 24.376V34.876H66.5234V24.376H67.4234ZM61.9874 25.456V26.2H60.0314V31.396C60.7834 31.364 61.4754 31.276 62.1074 31.132L62.2034 31.888C61.7314 31.992 61.2954 32.06 60.8954 32.092C60.5034 32.124 60.0794 32.14 59.6234 32.14H59.1434V25.456H61.9874ZM65.5394 25.456V26.2H63.4754V31.396C63.9554 31.388 64.3834 31.368 64.7594 31.336C65.1434 31.296 65.5314 31.228 65.9234 31.132L66.0074 31.876C65.5514 31.988 65.1114 32.06 64.6874 32.092C64.2634 32.124 63.7394 32.14 63.1154 32.14H62.5874V25.456H65.5394Z" fill="white"/>
<path d="M104.373 16.358V22.206H94.5133V25.096H105.699V30.944H76.2893V25.096H87.4753V22.206H77.9553V3.88H90.3313V9.728H84.9933V16.358H90.3313V19.52H92.0313V2.86H104.033V8.708H99.0693V16.358H104.373ZM118.346 4.56V10.408H115.422V24.756H118.346V30.604H108.69V4.56H118.346ZM129.056 2.86V8.708H126.132V24.756H129.396V30.604H119.4V2.86H129.056ZM138.338 30.944H131.3V2.18H138.338V30.944Z" fill="white"/>
</svg>
