<svg width="27" height="27" viewBox="0 0 27 27" fill="none" xmlns="http://www.w3.org/2000/svg">
<rect width="27" height="27" rx="13.5" fill="#E1E9EF"/>
<path d="M13.5 23.5C12.95 23.5 12.4793 23.3043 12.088 22.913C11.6967 22.5217 11.5007 22.0507 11.5 21.5H15.5C15.5 22.05 15.3043 22.521 14.913 22.913C14.5217 23.305 14.0507 23.5007 13.5 23.5ZM6.5 20.5C6.21667 20.5 5.97934 20.404 5.788 20.212C5.59667 20.02 5.50067 19.7827 5.5 19.5C5.49934 19.2173 5.59534 18.98 5.788 18.788C5.98067 18.596 6.218 18.5 6.5 18.5H7.5V11.5C7.5 10.1167 7.91667 8.88767 8.75 7.813C9.58334 6.73834 10.6667 6.034 12 5.7V5C12 4.58334 12.146 4.22934 12.438 3.938C12.73 3.64667 13.084 3.50067 13.5 3.5C13.916 3.49934 14.2703 3.64534 14.563 3.938C14.8557 4.23067 15.0013 4.58467 15 5V5.325C14.8167 5.69167 14.6833 6.06667 14.6 6.45C14.5167 6.83334 14.4833 7.225 14.5 7.625C14.3333 7.59167 14.1707 7.56234 14.012 7.537C13.8533 7.51167 13.6827 7.49934 13.5 7.5C12.4 7.5 11.4583 7.89167 10.675 8.675C9.89167 9.45834 9.5 10.4 9.5 11.5V18.5H17.5V12.075C17.8 12.2083 18.121 12.3127 18.463 12.388C18.805 12.4633 19.1507 12.5007 19.5 12.5V18.5H20.5C20.7833 18.5 21.021 18.596 21.213 18.788C21.405 18.98 21.5007 19.2173 21.5 19.5C21.4993 19.7827 21.4033 20.0203 21.212 20.213C21.0207 20.4057 20.7833 20.5013 20.5 20.5H6.5ZM19.5 10.5C18.6667 10.5 17.9583 10.2083 17.375 9.625C16.7917 9.04167 16.5 8.33334 16.5 7.5C16.5 6.66667 16.7917 5.95834 17.375 5.375C17.9583 4.79167 18.6667 4.5 19.5 4.5C20.3333 4.5 21.0417 4.79167 21.625 5.375C22.2083 5.95834 22.5 6.66667 22.5 7.5C22.5 8.33334 22.2083 9.04167 21.625 9.625C21.0417 10.2083 20.3333 10.5 19.5 10.5Z" fill="black"/>
<circle cx="19.5" cy="7.5" r="3" fill="#FF0000"/>
</svg>
