<svg width="18" height="18" viewBox="0 0 18 18" fill="none" xmlns="http://www.w3.org/2000/svg">
<g clip-path="url(#clip0_679_29303)">
<path fill-rule="evenodd" clip-rule="evenodd" d="M16.0909 2.06248C16.1622 2.17064 16.1939 2.30007 16.1808 2.42892C16.1677 2.55778 16.1105 2.67816 16.0189 2.76973L9.12418 9.66373C9.05364 9.73422 8.96564 9.7847 8.86918 9.80998L5.99743 10.56C5.9025 10.5847 5.80275 10.5842 5.70807 10.5585C5.6134 10.5328 5.52709 10.4828 5.45772 10.4134C5.38835 10.3441 5.33833 10.2578 5.31262 10.1631C5.28692 10.0684 5.28642 9.96866 5.31118 9.87373L6.06118 7.00273C6.0836 6.91675 6.12485 6.83683 6.18193 6.76873L13.1022 -0.147018C13.2076 -0.252356 13.3506 -0.311523 13.4997 -0.311523C13.6487 -0.311523 13.7917 -0.252356 13.8972 -0.147018L16.0189 1.97398C16.0451 2.00161 16.0692 2.0312 16.0909 2.06248ZM14.8257 2.37148L13.4997 1.04623L7.11118 7.43473L6.64243 9.22948L8.43718 8.76073L14.8257 2.37148Z" fill="black"/>
<path d="M14.7308 10.8701C14.9358 9.11802 15.0012 7.35246 14.9265 5.59006C14.9247 5.54852 14.9316 5.50707 14.9467 5.46834C14.9618 5.4296 14.9848 5.39443 15.0143 5.36506L15.7523 4.62706C15.7724 4.60678 15.798 4.59275 15.826 4.58667C15.8539 4.58058 15.883 4.5827 15.9098 4.59275C15.9366 4.60281 15.9599 4.62039 15.9769 4.64337C15.9939 4.66636 16.0039 4.69377 16.0058 4.72231C16.1443 6.81574 16.0916 8.91745 15.8483 11.0013C15.6713 12.5178 14.4533 13.7066 12.9435 13.8753C10.3225 14.1654 7.67751 14.1654 5.05651 13.8753C3.54751 13.7066 2.32876 12.5178 2.15176 11.0013C1.84134 8.34284 1.84134 5.65728 2.15176 2.99881C2.32876 1.48231 3.54676 0.293558 5.05651 0.124808C7.04585 -0.0949066 9.05004 -0.148342 11.0483 -0.0349425C11.0769 -0.0328892 11.1043 -0.0226833 11.1272 -0.00553367C11.1502 0.011616 11.1678 0.034991 11.1779 0.061823C11.188 0.0886551 11.1902 0.11782 11.1842 0.145864C11.1783 0.173907 11.1644 0.199655 11.1443 0.220058L10.3995 0.964057C10.3704 0.993192 10.3356 1.01602 10.2973 1.03112C10.2589 1.04621 10.2179 1.05326 10.1768 1.05181C8.50933 0.994695 6.83995 1.05861 5.18176 1.24306C4.69722 1.29669 4.2449 1.5121 3.89788 1.8545C3.55085 2.19689 3.32939 2.64628 3.26926 3.13006C2.9684 5.70129 2.9684 8.29883 3.26926 10.8701C3.32939 11.3538 3.55085 11.8032 3.89788 12.1456C4.2449 12.488 4.69722 12.7034 5.18176 12.7571C7.69801 13.0383 10.302 13.0383 12.819 12.7571C13.3036 12.7034 13.7559 12.488 14.1029 12.1456C14.4499 11.8032 14.6706 11.3538 14.7308 10.8701Z" fill="black"/>
<path d="M14.7308 10.8701C14.9358 9.11802 15.0012 7.35246 14.9265 5.59006C14.9247 5.54852 14.9316 5.50707 14.9467 5.46834C14.9618 5.4296 14.9848 5.39443 15.0143 5.36506L15.7523 4.62706C15.7724 4.60678 15.798 4.59275 15.826 4.58667C15.8539 4.58058 15.883 4.5827 15.9098 4.59275C15.9366 4.60281 15.9599 4.62039 15.9769 4.64337C15.9939 4.66636 16.0039 4.69377 16.0058 4.72231C16.1443 6.81574 16.0916 8.91745 15.8483 11.0013C15.6713 12.5178 14.4533 13.7066 12.9435 13.8753C10.3225 14.1654 7.67751 14.1654 5.05651 13.8753C3.54751 13.7066 2.32876 12.5178 2.15176 11.0013C1.84134 8.34284 1.84134 5.65728 2.15176 2.99881C2.32876 1.48231 3.54676 0.293558 5.05651 0.124808C7.04585 -0.0949066 9.05004 -0.148342 11.0483 -0.0349425C11.0769 -0.0328892 11.1043 -0.0226833 11.1272 -0.00553367C11.1502 0.011616 11.1678 0.034991 11.1779 0.061823C11.188 0.0886551 11.1902 0.11782 11.1842 0.145864C11.1783 0.173907 11.1644 0.199655 11.1443 0.220058L10.3995 0.964057C10.3704 0.993192 10.3356 1.01602 10.2973 1.03112C10.2589 1.04621 10.2179 1.05326 10.1768 1.05181C8.50933 0.994695 6.83995 1.05861 5.18176 1.24306C4.69722 1.29669 4.2449 1.5121 3.89788 1.8545C3.55085 2.19689 3.32939 2.64628 3.26926 3.13006C2.9684 5.70129 2.9684 8.29883 3.26926 10.8701C3.32939 11.3538 3.55085 11.8032 3.89788 12.1456C4.2449 12.488 4.69722 12.7034 5.18176 12.7571C7.69801 13.0383 10.302 13.0383 12.819 12.7571C13.3036 12.7034 13.7559 12.488 14.1029 12.1456C14.4499 11.8032 14.6706 11.3538 14.7308 10.8701Z" fill="black"/>
</g>
<defs>
<clipPath id="clip0_679_29303">
<rect width="18" height="18" fill="white"/>
</clipPath>
</defs>
</svg>
