<svg width="27" height="27" viewBox="0 0 27 27" fill="none" xmlns="http://www.w3.org/2000/svg">
<path d="M6.5 20.5C6.21667 20.5 5.97934 20.404 5.788 20.212C5.59667 20.02 5.50067 19.7827 5.5 19.5C5.49934 19.2173 5.59534 18.98 5.788 18.788C5.98067 18.596 6.218 18.5 6.5 18.5H7.5V11.5C7.5 10.1167 7.91667 8.88767 8.75 7.813C9.58334 6.73834 10.6667 6.034 12 5.7V5C12 4.58334 12.146 4.22934 12.438 3.938C12.73 3.64667 13.084 3.50067 13.5 3.5C13.916 3.49934 14.2703 3.64534 14.563 3.938C14.8557 4.23067 15.0013 4.58467 15 5V5.7C16.3333 6.03334 17.4167 6.73767 18.25 7.813C19.0833 8.88834 19.5 10.1173 19.5 11.5V18.5H20.5C20.7833 18.5 21.021 18.596 21.213 18.788C21.405 18.98 21.5007 19.2173 21.5 19.5C21.4993 19.7827 21.4033 20.0203 21.212 20.213C21.0207 20.4057 20.7833 20.5013 20.5 20.5H6.5ZM13.5 23.5C12.95 23.5 12.4793 23.3043 12.088 22.913C11.6967 22.5217 11.5007 22.0507 11.5 21.5H15.5C15.5 22.05 15.3043 22.521 14.913 22.913C14.5217 23.305 14.0507 23.5007 13.5 23.5ZM9.5 18.5H17.5V11.5C17.5 10.4 17.1083 9.45834 16.325 8.675C15.5417 7.89167 14.6 7.5 13.5 7.5C12.4 7.5 11.4583 7.89167 10.675 8.675C9.89167 9.45834 9.5 10.4 9.5 11.5V18.5Z" fill="#E1E9EF"/>
</svg>
