<svg width="27" height="28" viewBox="0 0 27 28" fill="none" xmlns="http://www.w3.org/2000/svg">
<rect y="0.0834961" width="27" height="27" rx="13.5" fill="#7984FC"/>
<path d="M19.0909 13.5835V13.0835H18.5909H17.0455V12.7085H18.5909H19.0909V12.2085V10.646H19.4545V12.2085V12.7085H19.9545H21.5V13.0835H19.9545H19.4545V13.5835V15.146H19.0909V13.5835ZM12.4545 8.5835C13.6813 8.5835 14.6818 9.58634 14.6818 10.8335C14.6818 12.0806 13.6813 13.0835 12.4545 13.0835C11.2278 13.0835 10.2273 12.0806 10.2273 10.8335C10.2273 9.58634 11.2278 8.5835 12.4545 8.5835ZM17.4091 18.5835H7.5V17.7085C7.5 17.4334 7.63273 17.1564 7.9369 16.8733C8.24463 16.5869 8.69459 16.3283 9.23187 16.1113C10.3074 15.6769 11.6074 15.4585 12.4545 15.4585C13.3017 15.4585 14.6017 15.6769 15.6772 16.1113C16.2145 16.3283 16.6645 16.5869 16.9722 16.8733C17.2764 17.1564 17.4091 17.4334 17.4091 17.7085V18.5835Z" fill="white" stroke="white"/>
</svg>
