<svg width="22" height="22" viewBox="0 0 22 22" fill="none" xmlns="http://www.w3.org/2000/svg">
<rect width="22" height="22" rx="11" fill="#E1E9EF"/>
<path d="M12.1303 8.55678L8.76692 6.02512V15.9749L12.1303 13.4432L15.3835 11L12.1303 8.55678ZM12.1303 8.55678L8.76692 6.02512V15.9749L12.1303 13.4432L15.3835 11L12.1303 8.55678ZM12.1303 8.55678L8.76692 6.02512V15.9749L12.1303 13.4432L15.3835 11L12.1303 8.55678ZM9.86967 2.23317V0C7.65313 0.221106 5.63509 1.10553 4.00301 2.44322L5.56892 4.02412C6.79298 3.07337 8.25965 2.43216 9.86967 2.23317ZM4.01404 5.58291L2.43709 4.01306C1.10276 5.64925 0.220551 7.67236 0 9.89447H2.22757C2.42607 8.2804 3.06566 6.81005 4.01404 5.58291ZM2.22757 12.1055H0C0.220551 14.3276 1.10276 16.3508 2.43709 17.9869L4.01404 16.406C3.06566 15.1899 2.42607 13.7196 2.22757 12.1055ZM4.00301 19.5568C5.63509 20.8945 7.66416 21.7789 9.86967 22V19.7668C8.25965 19.5678 6.79298 18.9266 5.56892 17.9759L4.00301 19.5568ZM22 11C22 16.7045 17.6772 21.4141 12.1303 22V19.7668C16.4531 19.192 19.7945 15.4774 19.7945 11C19.7945 6.52261 16.4531 2.80804 12.1303 2.23317V0C17.6772 0.58593 22 5.29548 22 11Z" fill="black"/>
</svg>
