<svg width="30" height="31" viewBox="0 0 30 31" fill="none" xmlns="http://www.w3.org/2000/svg">
<rect x="0.5" y="1" width="29" height="29" rx="14.5" fill="white"/>
<rect x="0.5" y="1" width="29" height="29" rx="14.5" stroke="black"/>
<path d="M14 21.22C13.9333 21.22 13.8733 21.1933 13.82 21.14C13.7667 21.0867 13.74 21.0267 13.74 20.96V17.7H10.52C10.4533 17.7 10.3933 17.6733 10.34 17.62C10.2867 17.5667 10.26 17.5067 10.26 17.44V15.5C10.26 15.4333 10.2867 15.3733 10.34 15.32C10.3933 15.2667 10.4533 15.24 10.52 15.24H13.74V11.98C13.74 11.9133 13.7667 11.8533 13.82 11.8C13.8733 11.7467 13.9333 11.72 14 11.72H16C16.0667 11.72 16.1267 11.7467 16.18 11.8C16.2333 11.8533 16.26 11.9133 16.26 11.98V15.24H19.48C19.5467 15.24 19.6067 15.2667 19.66 15.32C19.7133 15.3733 19.74 15.4333 19.74 15.5V17.44C19.74 17.5067 19.7133 17.5667 19.66 17.62C19.6067 17.6733 19.5467 17.7 19.48 17.7H16.26V20.96C16.26 21.0267 16.2333 21.0867 16.18 21.14C16.1267 21.1933 16.0667 21.22 16 21.22H14Z" fill="black"/>
</svg>
