<svg width="31" height="31" viewBox="0 0 31 31" fill="none" xmlns="http://www.w3.org/2000/svg">
<circle cx="15.5" cy="15.5835" r="15" fill="#7984FC"/>
<path d="M10.6189 7.66517C10.017 7.36523 9.35579 7.93904 9.52766 8.61131L10.7877 13.5233C10.8192 13.6467 10.8849 13.7578 10.9764 13.8426C11.068 13.9275 11.1814 13.9824 11.3027 14.0006L17.4802 14.9213C17.6589 14.9474 17.6589 15.2173 17.4802 15.2441L11.3033 16.1641C11.1821 16.1823 11.0686 16.2372 10.9771 16.3221C10.8855 16.4069 10.8199 16.518 10.7883 16.6414L9.52766 21.556C9.35579 22.2276 10.017 22.8014 10.6189 22.5021L24.0552 15.8192C24.6483 15.5244 24.6483 14.6429 24.0552 14.3475L10.6189 7.66517Z" fill="white"/>
</svg>
